# xmcd
#
# Track frame offsets:
#	150
#	17260
#	33452
#	48649
#	64634
#	76167
#	91434
#	108892
#	120446
#	137036
#	152263
#	167266
#	182361
#	196800
#	207888
#	220191
#	233538
#
# Disc length: 3362 seconds
#
# Revision: 3
# Processed by: cddbd v1.5.2PL0 Copyright (c) Steve Scherf et al.
# Submitted via: EasyCDDAExtractor 11.0.3.1
#
DISCID=c30d2011
DTITLE=Various Artist - The Winners 08 [Disc 2]
DYEAR=2008
DGENRE=Country-Aust
TTITLE0=Troy Cassar-Daley - Everything's Going To Be Alright
TTITLE1=Dianna Corcoran - Then There's Me
TTITLE2=Amos Morris - Sign Of The Times
TTITLE3=The McClymonts - Save Yourself
TTITLE4=Michael Fix - Hobbity Hoi
TTITLE5=Harmony  James - Tailwind
TTITLE6=Sara Storer - Land Cries Out
TTITLE7=Steve Passfield - Stump Jumpin'
TTITLE8=Adam Harvey - Someone Else's Dream
TTITLE9=Carter and Carter - The Best Things In Life Are Free
TTITLE10=Brian Letton - Driving Through A Postcard
TTITLE11=Gina Jeffreys - The Truth About Lies
TTITLE12=Rose Carleo and Drew McAlister - Sometimes You Just Know
TTITLE13=Alisha Smith and Charley Boyter - Tanami Track
TTITLE14=Jonah's Road - Counting Down The Days
TTITLE15=Peter Pratt - Sons Of The Snowy
TTITLE16=Beccy Cole feat. Gina Jeffreys and Sara Storer - Galleries Of Pink Gala
TTITLE16=hs
EXTD=
EXTT0=
EXTT1=
EXTT2=
EXTT3=
EXTT4=
EXTT5=
EXTT6=
EXTT7=
EXTT8=
EXTT9=
EXTT10=
EXTT11=
EXTT12=
EXTT13=
EXTT14=
EXTT15=
EXTT16=
PLAYORDER=
